<svg width="34" height="34" viewBox="0 0 34 34" fill="none" xmlns="http://www.w3.org/2000/svg">
<mask id="path-1-inside-1_211_2338" fill="white">
<path d="M20.0116 16.7646C19.844 16.7646 19.6883 16.7185 19.5501 16.6444V16.6463C19.5501 16.91 19.4476 17.1577 19.2616 17.3431C19.0757 17.5291 18.8282 17.6316 18.5648 17.6316C18.3948 17.6316 18.2372 17.5844 18.0974 17.5083C18.0833 17.7495 17.9869 17.975 17.8149 18.1472C17.6289 18.3332 17.3815 18.4357 17.1179 18.4357C16.5942 18.4357 16.169 18.024 16.1384 17.5081C15.9763 17.5957 15.7932 17.6416 15.6042 17.6295C15.0891 17.5957 14.6857 17.1506 14.6857 16.616V12.1844L14.1811 13.0586C13.9889 13.393 13.6291 13.6006 13.2417 13.6006C13.053 13.6006 12.8665 13.5511 12.7014 13.4564C12.4957 13.3372 12.3486 13.1458 12.2875 12.9169C12.226 12.6878 12.2578 12.4482 12.3767 12.2429C12.3768 12.2429 14.0277 9.38395 14.1285 9.20834C14.1404 9.18194 14.1745 9.10536 14.2036 9.04009C14.2313 8.97777 14.2551 8.91381 14.2779 8.84953C14.7757 7.44397 16.0085 6.57087 17.4952 6.57087C19.4259 6.57087 20.9966 8.27408 20.9966 10.3676L20.9968 15.7791C20.9968 16.0425 20.8945 16.29 20.7087 16.4761C20.5227 16.6621 20.2752 16.7646 20.0115 16.7646L20.0116 16.7646ZM17.4953 7.09441C16.2177 7.09441 15.1995 7.816 14.7713 9.02462C14.7439 9.10137 14.7154 9.17811 14.6821 9.2529C14.5855 9.46953 14.5855 9.46953 14.5583 9.50069L14.5547 9.49757C14.4199 9.75192 14.0194 10.4454 12.83 12.5049C12.7811 12.5893 12.7682 12.6874 12.7931 12.7812C12.8183 12.875 12.8789 12.954 12.9627 13.0024C13.2228 13.1518 13.579 13.0554 13.7272 12.7971L14.7208 11.0768C14.7802 10.9743 14.9002 10.924 15.0154 10.9551C15.1298 10.9858 15.2094 11.0896 15.2094 11.208V16.6161C15.2094 16.8713 15.4019 17.0915 15.6385 17.1071C15.775 17.1143 15.9022 17.0686 15.9978 16.9731C16.0848 16.8862 16.1327 16.7704 16.1327 16.6466V13.1096C16.1327 12.965 16.2499 12.8477 16.3945 12.8477C16.5392 12.8477 16.6564 12.9648 16.6564 13.1096L16.6563 17.4506C16.6563 17.7051 16.8634 17.9122 17.1179 17.9122C17.2416 17.9122 17.3577 17.8643 17.4448 17.7774C17.5317 17.6903 17.5796 17.5742 17.5796 17.4506V13.1096C17.5796 12.965 17.6966 12.8477 17.8415 12.8477C17.9861 12.8477 18.1033 12.9648 18.1033 13.1096L18.1032 16.6059V16.6466C18.1032 16.901 18.3103 17.1081 18.565 17.1081C18.6885 17.1081 18.8043 17.06 18.8918 16.9728C18.9787 16.886 19.0266 16.7703 19.0266 16.6464V13.1094C19.0266 12.9648 19.1437 12.8476 19.2885 12.8476C19.4332 12.8476 19.5504 12.9646 19.5504 13.1094L19.5501 15.7793C19.5501 16.0339 19.7572 16.2411 20.0116 16.2411C20.1354 16.2411 20.2512 16.193 20.3381 16.1063C20.4253 16.019 20.473 15.9029 20.473 15.7793L20.4732 10.3678C20.4732 8.56304 19.1373 7.09446 17.4952 7.09446L17.4953 7.09441Z"/>
</mask>
<path d="M20.0116 16.7646C19.844 16.7646 19.6883 16.7185 19.5501 16.6444V16.6463C19.5501 16.91 19.4476 17.1577 19.2616 17.3431C19.0757 17.5291 18.8282 17.6316 18.5648 17.6316C18.3948 17.6316 18.2372 17.5844 18.0974 17.5083C18.0833 17.7495 17.9869 17.975 17.8149 18.1472C17.6289 18.3332 17.3815 18.4357 17.1179 18.4357C16.5942 18.4357 16.169 18.024 16.1384 17.5081C15.9763 17.5957 15.7932 17.6416 15.6042 17.6295C15.0891 17.5957 14.6857 17.1506 14.6857 16.616V12.1844L14.1811 13.0586C13.9889 13.393 13.6291 13.6006 13.2417 13.6006C13.053 13.6006 12.8665 13.5511 12.7014 13.4564C12.4957 13.3372 12.3486 13.1458 12.2875 12.9169C12.226 12.6878 12.2578 12.4482 12.3767 12.2429C12.3768 12.2429 14.0277 9.38395 14.1285 9.20834C14.1404 9.18194 14.1745 9.10536 14.2036 9.04009C14.2313 8.97777 14.2551 8.91381 14.2779 8.84953C14.7757 7.44397 16.0085 6.57087 17.4952 6.57087C19.4259 6.57087 20.9966 8.27408 20.9966 10.3676L20.9968 15.7791C20.9968 16.0425 20.8945 16.29 20.7087 16.4761C20.5227 16.6621 20.2752 16.7646 20.0115 16.7646L20.0116 16.7646ZM17.4953 7.09441C16.2177 7.09441 15.1995 7.816 14.7713 9.02462C14.7439 9.10137 14.7154 9.17811 14.6821 9.2529C14.5855 9.46953 14.5855 9.46953 14.5583 9.50069L14.5547 9.49757C14.4199 9.75192 14.0194 10.4454 12.83 12.5049C12.7811 12.5893 12.7682 12.6874 12.7931 12.7812C12.8183 12.875 12.8789 12.954 12.9627 13.0024C13.2228 13.1518 13.579 13.0554 13.7272 12.7971L14.7208 11.0768C14.7802 10.9743 14.9002 10.924 15.0154 10.9551C15.1298 10.9858 15.2094 11.0896 15.2094 11.208V16.6161C15.2094 16.8713 15.4019 17.0915 15.6385 17.1071C15.775 17.1143 15.9022 17.0686 15.9978 16.9731C16.0848 16.8862 16.1327 16.7704 16.1327 16.6466V13.1096C16.1327 12.965 16.2499 12.8477 16.3945 12.8477C16.5392 12.8477 16.6564 12.9648 16.6564 13.1096L16.6563 17.4506C16.6563 17.7051 16.8634 17.9122 17.1179 17.9122C17.2416 17.9122 17.3577 17.8643 17.4448 17.7774C17.5317 17.6903 17.5796 17.5742 17.5796 17.4506V13.1096C17.5796 12.965 17.6966 12.8477 17.8415 12.8477C17.9861 12.8477 18.1033 12.9648 18.1033 13.1096L18.1032 16.6059V16.6466C18.1032 16.901 18.3103 17.1081 18.565 17.1081C18.6885 17.1081 18.8043 17.06 18.8918 16.9728C18.9787 16.886 19.0266 16.7703 19.0266 16.6464V13.1094C19.0266 12.9648 19.1437 12.8476 19.2885 12.8476C19.4332 12.8476 19.5504 12.9646 19.5504 13.1094L19.5501 15.7793C19.5501 16.0339 19.7572 16.2411 20.0116 16.2411C20.1354 16.2411 20.2512 16.193 20.3381 16.1063C20.4253 16.019 20.473 15.9029 20.473 15.7793L20.4732 10.3678C20.4732 8.56304 19.1373 7.09446 17.4952 7.09446L17.4953 7.09441Z" fill="#4CAF4F"/>
<path d="M20.0116 16.7646V15.8365H23.2906L20.498 17.555L20.0116 16.7646ZM19.5501 16.6444H18.622V15.0936L19.9887 15.8264L19.5501 16.6444ZM19.2616 17.3431L18.6054 16.6869L18.6063 16.686L19.2616 17.3431ZM18.0974 17.5083L17.1709 17.4541L17.2563 15.9934L18.5413 16.6932L18.0974 17.5083ZM17.8149 18.1472L18.4715 18.8031L18.4711 18.8035L17.8149 18.1472ZM16.1384 17.5081L15.6971 16.6916L16.9785 15.9991L17.0648 17.4531L16.1384 17.5081ZM15.6042 17.6295L15.5447 18.5557L15.5435 18.5556L15.6042 17.6295ZM14.6857 12.1844L13.8819 11.7204L15.6138 8.71998V12.1844H14.6857ZM14.1811 13.0586L13.3764 12.5961L13.3773 12.5946L14.1811 13.0586ZM12.7014 13.4564L12.24 14.2617L12.2359 14.2593L12.7014 13.4564ZM12.2875 12.9169L13.1838 12.6763L13.1841 12.6773L12.2875 12.9169ZM12.3767 12.2429L11.5735 11.7778L11.8416 11.3148H12.3767V12.2429ZM14.1285 9.20834L14.9737 9.5916L14.9555 9.63179L14.9335 9.67007L14.1285 9.20834ZM14.2036 9.04009L13.3556 8.66296L13.3556 8.66295L14.2036 9.04009ZM14.2779 8.84953L15.1527 9.1594L15.1526 9.15966L14.2779 8.84953ZM20.9966 10.3676L20.0685 10.3677V10.3676H20.9966ZM20.9968 15.7791L21.9249 15.7791V15.7791H20.9968ZM20.7087 16.4761L21.3655 17.1318L21.3649 17.1324L20.7087 16.4761ZM20.0115 16.7646V17.6927H16.7326L19.5251 15.9742L20.0115 16.7646ZM17.4953 7.09441V6.16632H18.7257L18.3876 7.34938L17.4953 7.09441ZM14.7713 9.02462L15.6461 9.33454L15.6454 9.33654L14.7713 9.02462ZM14.6821 9.2529L15.53 9.63035L15.5298 9.63084L14.6821 9.2529ZM14.5583 9.50069L15.2572 10.1113L14.6501 10.8062L13.9517 10.2031L14.5583 9.50069ZM14.5547 9.49757L13.7346 9.06297L14.28 8.03401L15.1613 8.79517L14.5547 9.49757ZM12.83 12.5049L13.6337 12.969L13.6333 12.9697L12.83 12.5049ZM12.7931 12.7812L11.8969 13.0225L11.8961 13.0196L12.7931 12.7812ZM12.9627 13.0024L12.5004 13.8072L12.4987 13.8062L12.9627 13.0024ZM13.7272 12.7971L12.9223 12.3351L12.9235 12.3329L13.7272 12.7971ZM14.7208 11.0768L13.9172 10.6126L13.9177 10.6116L14.7208 11.0768ZM15.0154 10.9551L14.7752 11.8516L14.7729 11.851L15.0154 10.9551ZM15.6385 17.1071L15.5895 18.034L15.5776 18.0332L15.6385 17.1071ZM15.9978 16.9731L16.6541 17.6294L16.6535 17.63L15.9978 16.9731ZM16.6564 13.1096H17.5845V13.1097L16.6564 13.1096ZM16.6563 17.4506H15.7282V17.4505L16.6563 17.4506ZM17.4448 17.7774L18.1016 18.4331L18.1004 18.4343L17.4448 17.7774ZM18.1033 13.1096H19.0314V13.1097L18.1033 13.1096ZM18.1032 16.6059H17.1751V16.6059L18.1032 16.6059ZM18.8918 16.9728L19.5475 17.6297L19.5469 17.6303L18.8918 16.9728ZM19.5504 13.1094H20.4785V13.1096L19.5504 13.1094ZM19.5501 15.7793H18.622V15.7791L19.5501 15.7793ZM20.3381 16.1063L20.9943 16.7625L20.9937 16.7631L20.3381 16.1063ZM20.473 15.7793H19.5449V15.7792L20.473 15.7793ZM20.4732 10.3678H21.4013V10.3678L20.4732 10.3678ZM17.4952 7.09446V8.02256H16.2648L16.6029 6.8395L17.4952 7.09446ZM20.0116 17.6927C19.6698 17.6927 19.3647 17.598 19.1115 17.4623L19.9887 15.8264C20.0007 15.8329 20.0083 15.8353 20.0113 15.8361C20.0139 15.8368 20.0136 15.8365 20.0116 15.8365V17.6927ZM20.4782 16.6444V16.6463H18.622V16.6444H20.4782ZM20.4782 16.6463C20.4782 17.1554 20.2784 17.6398 19.917 18.0003L18.6063 16.686C18.6129 16.6794 18.6162 16.6737 18.6181 16.6691C18.62 16.6644 18.622 16.6573 18.622 16.6463H20.4782ZM19.9179 17.9994C19.5577 18.3596 19.0742 18.5597 18.5648 18.5597V16.7035C18.5755 16.7035 18.5825 16.7016 18.5872 16.6996C18.592 16.6976 18.5981 16.6941 18.6054 16.6869L19.9179 17.9994ZM18.5648 18.5597C18.2186 18.5597 17.9097 18.4628 17.6536 18.3234L18.5413 16.6932C18.5534 16.6998 18.561 16.7023 18.5641 16.7031C18.5667 16.7038 18.5665 16.7035 18.5648 16.7035V18.5597ZM19.0239 17.5624C18.9972 18.0193 18.8119 18.4623 18.4715 18.8031L17.1583 17.4913C17.1617 17.4878 17.1637 17.4848 17.1654 17.481C17.1672 17.4768 17.1701 17.4683 17.1709 17.4541L19.0239 17.5624ZM18.4711 18.8035C18.1109 19.1637 17.6273 19.3638 17.1179 19.3638V17.5076C17.1287 17.5076 17.1358 17.5056 17.1405 17.5037C17.1452 17.5017 17.1514 17.4982 17.1586 17.4909L18.4711 18.8035ZM17.1179 19.3638C16.0933 19.3638 15.2711 18.5596 15.2119 17.5632L17.0648 17.4531C17.0658 17.4689 17.0722 17.4827 17.0836 17.4936C17.0892 17.4989 17.0949 17.5023 17.0998 17.5044C17.1041 17.5061 17.1096 17.5076 17.1179 17.5076V19.3638ZM16.5796 18.3246C16.2799 18.4866 15.9244 18.58 15.5447 18.5557L15.6637 16.7033C15.6637 16.7033 15.6657 16.7035 15.6706 16.7023C15.6759 16.7011 15.6849 16.6982 15.6971 16.6916L16.5796 18.3246ZM15.5435 18.5556C14.513 18.488 13.7576 17.6116 13.7576 16.616H15.6138C15.6138 16.6474 15.6252 16.6715 15.6395 16.6873C15.6534 16.7026 15.6628 16.7032 15.665 16.7034L15.5435 18.5556ZM13.7576 16.616V12.1844H15.6138V16.616H13.7576ZM15.4895 12.6483L14.9849 13.5226L13.3773 12.5946L13.8819 11.7204L15.4895 12.6483ZM14.9857 13.5211C14.6271 14.145 13.9596 14.5287 13.2417 14.5287V12.6725C13.2986 12.6725 13.3507 12.6409 13.3764 12.5961L14.9857 13.5211ZM13.2417 14.5287C12.8908 14.5287 12.5453 14.4366 12.24 14.2617L13.1628 12.6512C13.1878 12.6655 13.2152 12.6725 13.2417 12.6725V14.5287ZM12.2359 14.2593C11.8192 14.0178 11.5159 13.6247 11.3908 13.1564L13.1841 12.6773C13.1833 12.6741 13.1809 12.6685 13.1765 12.6627C13.172 12.6569 13.1679 12.6541 13.1669 12.6535L12.2359 14.2593ZM11.3911 13.1575C11.2655 12.6896 11.3313 12.1962 11.5735 11.7778L13.1798 12.7079C13.1812 12.7056 13.1835 12.7003 13.1845 12.6928C13.1855 12.6853 13.1846 12.6793 13.1838 12.6763L11.3911 13.1575ZM12.3767 11.3148C11.9214 11.4341 11.5806 11.7657 11.5781 11.77C11.5772 11.7714 11.576 11.7735 11.5756 11.7742C11.5754 11.7746 11.575 11.7753 11.5748 11.7755C11.5747 11.7757 11.5746 11.776 11.5745 11.776C11.5744 11.7763 11.5744 11.7762 11.5748 11.7756C11.5754 11.7745 11.5765 11.7727 11.578 11.77C11.5811 11.7647 11.5856 11.7568 11.5917 11.7463C11.6038 11.7254 11.6215 11.6947 11.6442 11.6554C11.6895 11.577 11.7544 11.4646 11.8326 11.3293C11.9889 11.0585 12.1985 10.6957 12.4111 10.3274C12.8371 9.58953 13.2739 8.83288 13.3234 8.74662L14.9335 9.67007C14.8823 9.75942 14.4433 10.52 14.0186 11.2555C13.8059 11.6239 13.5964 11.9868 13.44 12.2575C13.3618 12.3929 13.2969 12.5053 13.2515 12.5839C13.2288 12.6232 13.211 12.654 13.1988 12.6751C13.1928 12.6856 13.188 12.6937 13.1848 12.6993C13.1832 12.702 13.1819 12.7043 13.181 12.706C13.1805 12.7067 13.18 12.7077 13.1794 12.7086C13.1792 12.709 13.1786 12.71 13.1779 12.7112C13.1775 12.712 13.1762 12.7142 13.1753 12.7157C13.1727 12.72 12.8319 13.0516 12.3767 13.1709V11.3148ZM13.2832 8.82508C13.2934 8.80255 13.3258 8.72991 13.3556 8.66296L15.0516 9.41721C15.0233 9.48081 14.9874 9.56133 14.9737 9.5916L13.2832 8.82508ZM13.3556 8.66295C13.3685 8.63395 13.3827 8.59689 13.4031 8.5394L15.1526 9.15966C15.1274 9.23074 15.0941 9.32159 15.0516 9.41723L13.3556 8.66295ZM13.403 8.53965C14.0316 6.76504 15.6138 5.64277 17.4952 5.64277V7.49896C16.4032 7.49896 15.5198 8.1229 15.1527 9.1594L13.403 8.53965ZM17.4952 5.64277C20.0078 5.64277 21.9247 7.83371 21.9247 10.3676H20.0685C20.0685 8.71445 18.844 7.49896 17.4952 7.49896V5.64277ZM21.9247 10.3676L21.9249 15.7791L20.0687 15.7792L20.0685 10.3677L21.9247 10.3676ZM21.9249 15.7791C21.9249 16.2881 21.7252 16.7714 21.3655 17.1318L20.0518 15.8205C20.0591 15.8131 20.0627 15.8069 20.0647 15.802C20.0667 15.7971 20.0687 15.79 20.0687 15.7791H21.9249ZM21.3649 17.1324C21.0046 17.4927 20.521 17.6927 20.0115 17.6927V15.8365C20.0225 15.8365 20.0296 15.8345 20.0343 15.8325C20.039 15.8306 20.0452 15.8271 20.0524 15.8199L21.3649 17.1324ZM19.5251 15.9742L19.5252 15.9741L20.498 17.555L20.498 17.555L19.5251 15.9742ZM17.4953 8.0225C16.6128 8.0225 15.9437 8.49454 15.6461 9.33454L13.8965 8.7147C14.4553 7.13745 15.8226 6.16632 17.4953 6.16632V8.0225ZM15.6454 9.33654C15.6161 9.41863 15.5781 9.52232 15.53 9.63035L13.8342 8.87544C13.8527 8.83391 13.8717 8.7841 13.8972 8.7127L15.6454 9.33654ZM15.5298 9.63084C15.4873 9.72616 15.4517 9.80666 15.4244 9.86119C15.4075 9.89503 15.3801 9.94719 15.3404 10.005C15.3002 10.0635 15.2604 10.1076 15.2572 10.1113L13.8594 8.89003C13.8616 8.88754 13.8609 8.88835 13.8598 8.88963C13.8584 8.89127 13.8547 8.89548 13.85 8.90125C13.8451 8.90722 13.8389 8.91494 13.832 8.92412C13.825 8.93338 13.8178 8.94323 13.8107 8.95362C13.7961 8.97478 13.7849 8.99331 13.777 9.00733C13.7695 9.02041 13.765 9.02946 13.764 9.0315C13.7629 9.03361 13.7636 9.03237 13.7667 9.02562C13.7698 9.01908 13.7741 9.00965 13.7803 8.99594C13.7865 8.98234 13.7939 8.96592 13.8029 8.94563C13.812 8.92537 13.8223 8.90216 13.8345 8.87495L15.5298 9.63084ZM13.9517 10.2031L13.9481 10.2L15.1613 8.79517L15.1649 8.79828L13.9517 10.2031ZM15.3747 9.93217C15.2295 10.2063 14.8148 10.924 13.6337 12.969L12.0263 12.0407C13.224 9.96691 13.6103 9.2976 13.7346 9.06297L15.3747 9.93217ZM13.6333 12.9697C13.7075 12.8414 13.7282 12.6865 13.69 12.5428L11.8961 13.0196C11.8081 12.6883 11.8547 12.3373 12.0267 12.04L13.6333 12.9697ZM13.6893 12.5399C13.6511 12.3981 13.5572 12.274 13.4267 12.1986L12.4987 13.8062C12.2005 13.6341 11.9856 13.3519 11.8969 13.0225L13.6893 12.5399ZM13.4249 12.1976C13.3193 12.137 13.2165 12.1374 13.1456 12.1565C13.0749 12.1755 12.9843 12.227 12.9223 12.3351L14.5321 13.2591C14.1277 13.9638 13.2033 14.2109 12.5004 13.8072L13.4249 12.1976ZM12.9235 12.3329L13.9172 10.6126L15.5245 11.541L14.5309 13.2613L12.9235 12.3329ZM13.9177 10.6116C14.1858 10.1488 14.733 9.91721 15.2578 10.0593L14.7729 11.851C15.0675 11.9307 15.3746 11.7998 15.5239 11.542L13.9177 10.6116ZM15.2555 10.0586C15.7762 10.1981 16.1375 10.67 16.1375 11.208H14.2813C14.2813 11.5092 14.4834 11.7734 14.7752 11.8516L15.2555 10.0586ZM16.1375 11.208V16.6161H14.2813V11.208H16.1375ZM16.1375 16.6161C16.1375 16.5104 16.0983 16.4142 16.034 16.3407C15.9697 16.2672 15.8564 16.1914 15.6995 16.181L15.5776 18.0332C14.7963 17.9818 14.2813 17.3012 14.2813 16.6161H16.1375ZM15.6876 16.1803C15.5779 16.1745 15.444 16.2147 15.3422 16.3163L16.6535 17.63C16.3605 17.9225 15.9721 18.0541 15.5895 18.0339L15.6876 16.1803ZM15.3416 16.3169C15.2535 16.4049 15.2046 16.5256 15.2046 16.6466H17.0607C17.0607 17.0152 16.916 17.3675 16.6541 17.6294L15.3416 16.3169ZM15.2046 16.6466V13.1096H17.0607V16.6466H15.2046ZM15.2046 13.1096C15.2046 12.4524 15.7373 11.9196 16.3945 11.9196V13.7758C16.7625 13.7758 17.0607 13.4776 17.0607 13.1096H15.2046ZM16.3945 11.9196C17.0514 11.9196 17.5845 12.4519 17.5845 13.1096H15.7284C15.7284 13.4778 16.027 13.7758 16.3945 13.7758V11.9196ZM17.5845 13.1097L17.5844 17.4506L15.7282 17.4505L15.7284 13.1096L17.5845 13.1097ZM17.5844 17.4506C17.5844 17.1925 17.376 16.9841 17.1179 16.9841V18.8403C16.3508 18.8403 15.7282 18.2177 15.7282 17.4506H17.5844ZM17.1179 16.9841C16.9971 16.9841 16.877 17.0328 16.7891 17.1205L18.1004 18.4343C17.8383 18.6959 17.486 18.8403 17.1179 18.8403V16.9841ZM16.7879 17.1218C16.7001 17.2097 16.6515 17.3298 16.6515 17.4506H18.5076C18.5076 17.8187 18.3632 18.171 18.1016 18.4331L16.7879 17.1218ZM16.6515 17.4506V13.1096H18.5076V17.4506H16.6515ZM16.6515 13.1096C16.6515 12.4528 17.1837 11.9196 17.8415 11.9196V13.7758C18.2096 13.7758 18.5076 13.4772 18.5076 13.1096H16.6515ZM17.8415 11.9196C18.4983 11.9196 19.0314 12.4519 19.0314 13.1096H17.1753C17.1753 13.4778 17.4739 13.7758 17.8415 13.7758V11.9196ZM19.0314 13.1097L19.0313 16.606L17.1751 16.6059L17.1753 13.1096L19.0314 13.1097ZM19.0313 16.6059V16.6466H17.1751V16.6059H19.0313ZM19.0313 16.6466C19.0313 16.3879 18.8224 16.18 18.565 16.18V18.0362C17.7982 18.0362 17.1751 17.414 17.1751 16.6466H19.0313ZM18.565 16.18C18.4417 16.18 18.3223 16.2301 18.2368 16.3153L19.5469 17.6303C19.2862 17.8899 18.9353 18.0362 18.565 18.0362V16.18ZM18.2362 16.3159C18.1474 16.4045 18.0985 16.5256 18.0985 16.6464H19.9547C19.9547 17.0149 19.8101 17.3675 19.5475 17.6297L18.2362 16.3159ZM18.0985 16.6464V13.1094H19.9547V16.6464H18.0985ZM18.0985 13.1094C18.0985 12.4526 18.6308 11.9195 19.2885 11.9195V13.7756C19.6567 13.7756 19.9547 13.477 19.9547 13.1094H18.0985ZM19.2885 11.9195C19.9454 11.9195 20.4785 12.4517 20.4785 13.1094H18.6223C18.6223 13.4776 18.921 13.7756 19.2885 13.7756V11.9195ZM20.4785 13.1096L20.4782 15.7794L18.622 15.7791L18.6223 13.1093L20.4785 13.1096ZM20.4782 15.7793C20.4782 15.5218 20.2702 15.313 20.0116 15.313V17.1692C19.2442 17.1692 18.622 16.5461 18.622 15.7793H20.4782ZM20.0116 15.313C19.8898 15.313 19.7697 15.3623 19.6824 15.4494L20.9937 16.7631C20.7326 17.0238 20.3809 17.1692 20.0116 17.1692V15.313ZM19.6818 15.45C19.5934 15.5384 19.5449 15.659 19.5449 15.7793H21.4011C21.4011 16.1468 21.2572 16.4997 20.9943 16.7625L19.6818 15.45ZM19.5449 15.7792L19.5451 10.3677L21.4013 10.3678L21.4011 15.7793L19.5449 15.7792ZM19.5451 10.3678C19.5451 8.99103 18.5441 8.02256 17.4952 8.02256V6.16637C19.7306 6.16637 21.4013 8.13505 21.4013 10.3678H19.5451ZM16.6029 6.8395L16.6029 6.83944L18.3876 7.34938L18.3876 7.34943L16.6029 6.8395Z" fill="#4CAF4F" mask="url(#path-1-inside-1_211_2338)"/>
<path d="M11.529 21.7395C11.4047 21.8142 11.244 21.7739 11.1697 21.6498C11.0952 21.5258 11.1356 21.3649 11.2594 21.2904M11.529 21.7395L13.7916 18.6949C14.0102 18.5636 14.2985 18.6154 14.4333 18.8104M11.529 21.7395L14.5619 19.92H14.562L14.5624 19.9198M11.529 21.7395L15.7264 20.2981C15.8323 20.2345 15.9071 20.1338 15.9369 20.0142M11.2594 21.2904L14.2924 19.4709C14.3984 19.4073 14.4733 19.3065 14.5031 19.1872M11.2594 21.2904L11.2901 21.3416L11.3941 21.515L11.3943 21.5153L11.4412 21.5935L11.4981 21.6884L11.4982 21.6883L11.4983 21.6883L11.4985 21.6881M11.2594 21.2904L11.2901 21.3416M14.5031 19.1872C14.5359 19.0564 14.511 18.9226 14.4333 18.8104M14.5031 19.1872L14.578 19.206L14.5709 19.0521C14.5659 18.9462 14.535 18.8522 14.4825 18.7766L14.4824 18.7764L14.4333 18.8104M14.5031 19.1872L14.578 19.206L14.5854 19.3648L14.4336 19.4559H14.4333L14.3231 19.522L14.3231 19.522L14.3231 19.5221L11.2903 21.3415M14.4333 18.8104L14.4824 18.7764L12.243 22.9289C12.3383 22.8716 12.3698 22.7477 12.312 22.6516C12.2548 22.5562 12.1305 22.5249 12.0348 22.5823L15.0677 20.7629C15.1374 20.721 15.2104 20.6894 15.285 20.6677L15.7554 20.3465L15.7554 20.3465L15.7813 20.3288C15.8917 20.2534 15.9647 20.149 15.9947 20.0288L15.9947 20.0287L15.9369 20.0142M11.2903 21.3415C11.3857 21.2845 11.5099 21.3154 11.5675 21.4108C11.5676 21.4111 11.5678 21.4113 11.5679 21.4115C11.6251 21.5075 11.5935 21.631 11.4985 21.6881M11.2903 21.3415C11.2902 21.3415 11.2902 21.3416 11.2901 21.3416M11.2903 21.3415L11.2901 21.3416M11.4985 21.6881L14.5311 19.8689L14.5312 19.8688L14.5314 19.8687C14.5314 19.8687 14.5315 19.8686 14.5316 19.8686L14.5619 19.919L14.562 19.9192L14.5624 19.9198M11.4985 21.6881L11.3945 21.5152L11.3943 21.5148L11.3591 21.4563L11.2901 21.3416M14.5624 19.9198V19.8493C14.6209 19.811 14.6744 19.7666 14.7222 19.717L15.2215 19.4564L15.2215 19.4564L15.2491 19.442C15.3294 19.4001 15.4103 19.3805 15.4872 19.3805C15.5287 19.3805 15.5716 19.3856 15.6153 19.3965C15.6153 19.3965 15.6153 19.3965 15.6154 19.3965C15.6155 19.3965 15.6157 19.3966 15.6158 19.3966L15.7135 19.0042M14.5624 19.9198L15.2514 19.5064C15.3571 19.4431 15.4807 19.4245 15.6009 19.4544C15.7205 19.4842 15.8213 19.559 15.8848 19.6648C15.9482 19.7707 15.9668 19.8949 15.9369 20.0142M15.7135 19.0042C15.7135 19.0042 15.7135 19.0042 15.7135 19.0042M15.7135 19.0042C15.9526 19.0639 16.156 19.2149 16.2826 19.4259L16.3337 19.3953M15.7135 19.0042L15.7279 18.9463M15.7135 19.0042L15.6154 19.3965C15.7512 19.4304 15.8637 19.5138 15.9357 19.6339C15.9358 19.634 15.9358 19.6341 15.9359 19.6341C15.9359 19.6341 15.9359 19.6341 15.9359 19.6342C16.0081 19.7549 16.0286 19.8933 15.9947 20.0285L15.9947 20.0287L15.9369 20.0142M15.7135 19.0042C15.7134 19.0042 15.7134 19.0042 15.7133 19.0041L15.7127 19.004C15.641 18.9862 15.5684 18.9771 15.4961 18.9764M15.7135 19.0042L15.7279 18.9463M15.2758 21.1095L15.5375 20.9526L15.8072 21.1117C15.888 21.1594 15.949 21.219 15.9903 21.288L15.9905 21.2883C15.9905 21.2883 15.9906 21.2884 15.9906 21.2885L15.9397 21.3191M15.2758 21.1095L16.0497 21.6831C16.0834 21.5474 16.0628 21.4091 15.9906 21.2885L15.9397 21.3191M15.2758 21.1095L15.3065 21.1607M15.2758 21.1095L15.2758 21.1095L15.3065 21.1607M15.9397 21.3191C15.8087 21.1008 15.5245 21.0298 15.3065 21.1607M15.9397 21.3191C16.0033 21.4249 16.0219 21.5492 15.992 21.6687L15.3065 21.1607M16.3819 21.0388C16.3841 21.0424 16.3863 21.046 16.3885 21.0497L16.3819 21.0388ZM16.3819 21.0388C16.3662 21.051 16.3503 21.063 16.3341 21.0746C16.3352 21.0764 16.3363 21.0781 16.3374 21.0799L16.3819 21.0388ZM16.3097 20.331C16.3431 20.267 16.3692 20.1985 16.3871 20.1268L16.3097 20.331ZM16.3097 20.331C16.3263 20.3414 16.3428 20.3521 16.3592 20.3632C16.3964 20.2939 16.4253 20.2196 16.4449 20.1411C16.5087 19.8861 16.4692 19.6213 16.3337 19.3953M16.3097 20.331L16.3871 20.1267C16.4469 19.8875 16.4092 19.6372 16.2829 19.4263L16.2827 19.426C16.2827 19.426 16.2827 19.426 16.2826 19.4259L16.3337 19.3953M16.3337 19.3953C16.1984 19.1696 15.9833 19.0101 15.7279 18.9463M15.7279 18.9463L15.4909 18.9164M15.4909 18.9164C15.493 18.9365 15.4947 18.9565 15.4961 18.9764M15.4909 18.9164C15.4896 18.9164 15.4884 18.9164 15.4872 18.9164C15.3302 18.9164 15.1761 18.9566 15.0344 19.0306M15.4909 18.9164L15.0344 19.0306M15.4961 18.9764C15.4968 18.9873 15.4974 18.9982 15.498 19.009L15.4872 19.0095L15.1991 19.0229M15.4961 18.9764C15.4931 18.9764 15.4901 18.9764 15.4872 18.9764C15.3893 18.9765 15.2921 18.9922 15.1991 19.0229M15.1991 19.0229L15.0344 19.0306M15.1991 19.0229C15.1518 19.0386 15.1056 19.0581 15.0609 19.0814C15.0447 19.0899 15.0287 19.0989 15.0129 19.1083L15.0127 19.1084L14.9797 19.1282M15.0344 19.0306L14.7699 19.2541L14.77 19.254L14.9533 19.2999C14.9533 19.3 14.9533 19.3 14.9533 19.3C14.9676 19.243 14.9763 19.1855 14.9797 19.1282M15.0344 19.0306L14.9636 18.8949M15.0344 19.0306C15.0271 18.8725 14.9854 18.7168 14.9054 18.5778C14.8872 18.5859 14.8692 18.5943 14.8513 18.6031M14.9797 19.1282C14.9816 19.0964 14.9818 19.0647 14.9804 19.0331C14.9783 18.9865 14.9727 18.9403 14.9636 18.8949M14.9797 19.1282L14.9636 18.8949M14.9636 18.8949L14.8197 18.6192C14.8302 18.6137 14.8407 18.6084 14.8513 18.6031M14.9636 18.8949L14.8148 18.5462C14.8277 18.5648 14.8399 18.5838 14.8513 18.6031M14.9636 18.8949C14.9432 18.7928 14.9054 18.6943 14.8513 18.6031M16.043 20.712L16.1223 20.5775C16.0879 20.6097 16.051 20.6393 16.0117 20.6662C15.9966 20.6765 15.9811 20.6864 15.9653 20.6959L15.9651 20.696L15.9315 20.7162L16.043 20.712ZM8.63216 18.5524L8.5794 18.5246C8.5697 18.5421 8.54556 18.5856 8.50989 18.6498C8.50106 18.6658 8.49152 18.6829 8.48132 18.7013C8.4995 18.7104 8.51784 18.7183 8.53622 18.7253C8.56759 18.6687 8.59957 18.6111 8.63216 18.5524ZM12.7791 23.823C12.7791 23.8231 12.779 23.8231 12.779 23.8231L12.7791 23.823Z" fill="#4CAF4F" stroke="#4CAF4F" stroke-width="0.928093"/>
<path d="M24.4811 19.3885L24.4811 19.3885L24.4811 19.3885ZM24.4811 19.3885C24.3839 19.2143 24.3878 18.9998 24.4908 18.8281L24.4811 19.3885ZM18.7395 18.9762C18.667 18.9768 18.5941 18.986 18.5222 19.004L18.7395 18.9762ZM18.7395 18.9762C18.7409 18.9563 18.7426 18.9363 18.7448 18.9163L18.7395 18.9762ZM24.0635 19.7139L24.0241 19.6429L24.0635 19.7139ZM22.9453 21.3414C22.9452 21.3414 22.9451 21.3413 22.945 21.3413L22.9452 21.3413L22.9453 21.3414ZM21.4565 23.8234C21.4564 23.8233 21.4563 23.8233 21.4561 23.8232L21.4565 23.8234ZM21.456 23.8231L21.4561 23.8232L21.456 23.8231Z" fill="#4CAF4F" stroke="#4CAF4F" stroke-width="0.928093"/>
</svg>
