<svg width="35" height="34" viewBox="0 0 35 34" fill="none" xmlns="http://www.w3.org/2000/svg">
<g clip-path="url(#clip0_211_2332)">
<path d="M33.1461 27.0625L33.1461 27.0625C33.2774 26.9715 33.3892 26.8553 33.4752 26.7207L33.7685 26.908L33.4752 26.7207C33.5611 26.5861 33.6195 26.4357 33.6468 26.2784C33.6741 26.121 33.6699 25.9598 33.6344 25.8041L33.9737 25.7267L33.6344 25.8041C33.5988 25.6484 33.5327 25.5013 33.4398 25.3714L33.4383 25.3692C32.1312 23.5113 30.3502 22.0374 28.2806 21.1008L27.7759 20.8724L28.2007 20.5168C29.4605 19.4624 30.3647 18.0452 30.7902 16.4584C31.2157 14.8716 31.1419 13.1922 30.5787 11.6489C30.0155 10.1056 28.9903 8.77331 27.6428 7.83352C26.2953 6.89373 24.6908 6.39206 23.048 6.39684L23.0464 6.39684C22.3153 6.39562 21.5876 6.49658 20.8844 6.69677L20.8781 6.69855L20.8781 6.69849C20.7219 6.73982 20.5755 6.81181 20.4474 6.91027C20.3193 7.00872 20.2121 7.13168 20.132 7.27197C20.0519 7.41227 20.0004 7.56711 19.9807 7.72746C19.961 7.88782 19.9734 8.0505 20.0172 8.20602C20.0609 8.36155 20.1352 8.50681 20.2356 8.63336L19.963 8.84973L20.2356 8.63336C20.3361 8.75991 20.4607 8.86521 20.6022 8.94314L20.4344 9.24801L20.6022 8.94314C20.7438 9.02106 20.8994 9.07006 21.06 9.08727C21.2207 9.10447 21.3831 9.08955 21.5379 9.04337L21.5419 9.04218L21.542 9.0422C22.0316 8.90251 22.5384 8.83212 23.0476 8.83308M33.1461 27.0625L23.047 9.18112M33.1461 27.0625L33.1421 27.0654C32.9389 27.2106 32.6953 27.2883 32.4455 27.2876C32.2502 27.2864 32.0579 27.2388 31.8847 27.1486C31.7115 27.0585 31.5622 26.9284 31.4492 26.7693M33.1461 27.0625L31.1649 26.97M23.0476 8.83308L23.047 9.18112M23.0476 8.83308C23.0474 8.83308 23.0472 8.83308 23.047 8.83308V9.18112M23.0476 8.83308C24.5243 8.83325 25.9404 9.41992 26.9845 10.4641C28.0288 11.5084 28.6155 12.9248 28.6155 14.4016C28.6155 15.8785 28.0288 17.2949 26.9845 18.3392C25.9402 19.3835 24.5238 19.9702 23.047 19.9702C22.7239 19.9702 22.4141 20.0985 22.1856 20.327C21.9572 20.5554 21.8288 20.8652 21.8288 21.1883C21.8288 21.5114 21.9572 21.8212 22.1856 22.0497C22.4141 22.2781 22.7239 22.4064 23.047 22.4064H23.0474C24.6948 22.4082 26.3177 22.8054 27.7797 23.5647C29.2417 24.3239 30.5001 25.4228 31.4492 26.7693M23.047 9.18112C24.4315 9.18112 25.7594 9.73113 26.7384 10.7102C27.7175 11.6892 28.2675 13.0171 28.2675 14.4016C28.2675 15.7862 27.7175 17.1141 26.7384 18.0931C25.7594 19.0721 24.4315 19.6222 23.047 19.6222C22.6316 19.6222 22.2332 19.7872 21.9395 20.0809C21.6458 20.3746 21.4808 20.7729 21.4808 21.1883C21.4808 21.6037 21.6458 22.002 21.9395 22.2958C22.2332 22.5895 22.6316 22.7545 23.047 22.7545C24.6387 22.7562 26.2067 23.14 27.6194 23.8736C29.032 24.6071 30.2479 25.669 31.1649 26.97M31.4492 26.7693C31.449 26.7691 31.4489 26.7689 31.4488 26.7687L31.1649 26.97M31.4492 26.7693C31.4492 26.7693 31.4493 26.7694 31.4494 26.7695L31.1649 26.97M17.5632 20.5174L17.1405 20.873L17.6438 21.1008C19.7134 22.0374 21.4944 23.5113 22.8015 25.3692L22.8065 25.3763L22.8118 25.3831C22.9133 25.5132 22.9874 25.6626 23.0294 25.8221C23.0715 25.9817 23.0807 26.1482 23.0565 26.3114C23.0323 26.4746 22.9751 26.6312 22.8886 26.7717C22.802 26.9122 22.6878 27.0336 22.5528 27.1286C22.4179 27.2236 22.2651 27.2902 22.1036 27.3244C21.9422 27.3585 21.7755 27.3595 21.6136 27.3273C21.4518 27.2951 21.2982 27.2303 21.1621 27.1369C21.0261 27.0435 20.9104 26.9234 20.8222 26.784L20.8177 26.7769L20.8129 26.7701C19.8657 25.421 18.6077 24.3199 17.1451 23.5597C15.6826 22.7995 14.0585 22.4027 12.4102 22.4027C10.7618 22.4027 9.13774 22.7995 7.67517 23.5597C6.21261 24.3199 4.95457 25.421 4.0074 26.7701L4.00663 26.7712C3.89529 26.9311 3.74683 27.0616 3.57399 27.1515C3.40114 27.2415 3.20907 27.2882 3.01422 27.2876L3.01209 27.2876C2.76219 27.2884 2.51836 27.2107 2.31506 27.0654L2.31339 27.0642C2.04987 26.8782 1.8709 26.5952 1.81571 26.2775C1.76054 25.9598 1.83359 25.6331 2.01884 25.3692C3.32594 23.5113 5.10689 22.0374 7.17651 21.1008L7.67982 20.873L7.25707 20.5174C6.00064 19.4604 5.09962 18.0427 4.67616 16.4563C4.25271 14.87 4.3273 13.1918 4.88983 11.6493C5.45235 10.1068 6.47561 8.77457 7.82085 7.83325C9.1661 6.89192 10.7683 6.38704 12.4102 6.38704C14.052 6.38704 15.6542 6.89192 16.9995 7.83325C18.3447 8.77457 19.368 10.1068 19.9305 11.6493C20.493 13.1918 20.5676 14.87 20.1442 16.4563C19.7207 18.0427 18.8197 19.4604 17.5632 20.5174ZM7.78007 11.3079C7.16819 12.2237 6.8416 13.3003 6.8416 14.4016C6.8416 15.8785 7.42829 17.2949 8.47259 18.3392C9.5169 19.3835 10.9333 19.9702 12.4102 19.9702C13.5115 19.9702 14.5881 19.6436 15.5039 19.0317C16.4196 18.4198 17.1334 17.5502 17.5548 16.5326C17.9763 15.5151 18.0866 14.3955 17.8717 13.3153C17.6569 12.2351 17.1265 11.2428 16.3477 10.4641C15.5689 9.6853 14.5767 9.15494 13.4965 8.94008C12.4163 8.72521 11.2967 8.83549 10.2792 9.25696C9.26164 9.67843 8.39195 10.3922 7.78007 11.3079Z" fill="#4CAF4F" stroke="#4CAF4F" stroke-width="0.696069"/>
</g>
<defs>
<clipPath id="clip0_211_2332">
<rect width="33.4113" height="33.4113" fill="white" transform="translate(0.924805 0.306213)"/>
</clipPath>
</defs>
</svg>
