<svg width="34" height="34" viewBox="0 0 34 34" fill="none" xmlns="http://www.w3.org/2000/svg">
<path d="M4.13324 11.6341V11.9822H4.48127H29.5398H29.8878V11.6341V10.068C29.8878 9.28339 29.5761 8.53093 29.0213 7.97615C28.4666 7.42136 27.7141 7.10968 26.9295 7.10968H7.09154C6.30695 7.10968 5.55449 7.42136 4.9997 7.97615C4.44492 8.53093 4.13324 9.28339 4.13324 10.068V11.6341ZM29.8878 13.7223V13.3743H29.5398H4.48127H4.13324V13.7223V23.6413C4.13324 24.4259 4.44492 25.1784 4.9997 25.7332C5.55449 26.2879 6.30695 26.5996 7.09154 26.5996H26.9295C27.7141 26.5996 28.4666 26.2879 29.0213 25.7332C29.5761 25.1784 29.8878 24.4259 29.8878 23.6413V13.7223ZM2.7411 10.068C2.7411 8.91417 3.19945 7.80762 4.01531 6.99175C4.83118 6.17589 5.93773 5.71754 7.09154 5.71754H26.9295C28.0833 5.71754 29.1899 6.17589 30.0057 6.99175C30.8216 7.80762 31.28 8.91417 31.28 10.068V23.6413C31.28 24.7951 30.8216 25.9017 30.0057 26.7176C29.1899 27.5334 28.0833 27.9918 26.9295 27.9918H7.09154C5.93773 27.9918 4.83118 27.5334 4.01531 26.7176C3.19945 25.9017 2.7411 24.7951 2.7411 23.6413V10.068ZM22.231 20.335H25.3634C25.548 20.335 25.725 20.4083 25.8556 20.5389C25.9861 20.6694 26.0594 20.8465 26.0594 21.0311C26.0594 21.2157 25.9861 21.3927 25.8556 21.5233C25.725 21.6538 25.548 21.7271 25.3634 21.7271H22.231C22.0464 21.7271 21.8694 21.6538 21.7388 21.5233C21.6083 21.3927 21.535 21.2157 21.535 21.0311C21.535 20.8465 21.6083 20.6694 21.7388 20.5389C21.8694 20.4083 22.0464 20.335 22.231 20.335Z" fill="#4CAF4F" stroke="#4CAF4F" stroke-width="0.696069"/>
</svg>
